<?xml version="1.0" encoding="utf-8"?>
<!-- Generator: Adobe Illustrator 23.0.6, SVG Export Plug-In . SVG Version: 6.00 Build 0)  -->
<svg version="1.1" id="Layer_1" xmlns="http://www.w3.org/2000/svg" xmlns:xlink="http://www.w3.org/1999/xlink" x="0px" y="0px"
	 viewBox="0 0 1262.3 147.8" style="enable-background:new 0 0 1262.3 147.8;" xml:space="preserve">
<style type="text/css">
	.st0{fill:#606061;}
	.st1{fill:#BA1F40;}
	.st2{fill:#FFFFFF;}
	.st3{fill:#BB0E3D;}
	.st4{fill:#606060;}
</style>
<g>
	<g>
		<path class="st0" d="M182.4,74.5l-33.7-60.6H27.1c-7.2,0-13,5.8-13,13v95.2c0,7.2,5.8,13,13,13h121.6L182.4,74.5z"/>
		<path class="st1" d="M179.1,20.2c-2.5-3.8-6.7-6.3-11.2-6.3h-10.1l34.1,60.6l-34.1,60.6h10.1c4.7,0,9-2.5,11.2-6.3l30.3-54.3
			L179.1,20.2z"/>
	</g>
	<g>
		<rect x="85.9" y="47.6" class="st2" width="9" height="53.9"/>
		<polygon class="st2" points="68,47.6 68,87.1 43.3,47.6 34.3,47.6 34.3,101.4 43.3,101.4 43.3,61.9 68,101.4 76.9,101.4 
			76.9,47.6 		"/>
		<polygon class="st2" points="137.5,47.6 137.5,70 112.9,70 112.9,47.6 103.9,47.6 103.9,101.4 112.9,101.4 112.9,79 137.5,79 
			137.5,101.4 146.5,101.4 146.5,47.6 		"/>
	</g>
</g>
<g>
	<g>
		<path class="st3" d="M256,31.9h5.6V57H256l-11.9-15.7V57h-5.6V31.9h5.2L256,48V31.9z"/>
		<path class="st3" d="M285.9,57l-2.2-5.4h-10.5l-2.2,5.4h-6.1l10.8-25.1h5.4L291.7,57H285.9z M278.2,39.3l-3.1,7.2h6.3L278.2,39.3z
			"/>
		<path class="st3" d="M303.4,36.8V57h-5.6V36.8h-7.2v-4.9h19.7v4.9H303.4z"/>
		<path class="st3" d="M314.6,31.9h5.6V57h-5.6V31.9z"/>
		<path class="st3" d="M347.6,53.4c-2.5,2.5-5.6,3.8-9.4,3.8c-3.8,0-6.7-1.3-9.4-3.8c-2.5-2.5-3.8-5.6-3.8-9.2s1.3-6.7,3.8-9.2
			c2.5-2.5,5.6-3.8,9.4-3.8c3.8,0,6.7,1.3,9.4,3.8c2.5,2.5,3.8,5.6,3.8,9.2C351.4,48,350.1,50.9,347.6,53.4z M345.6,44.2
			c0-2.2-0.7-4-2.2-5.8c-1.3-1.6-3.1-2.5-5.4-2.5c-2.2,0-3.8,0.9-5.4,2.5c-1.3,1.6-2.2,3.6-2.2,5.8s0.7,4,2.2,5.6
			c1.3,1.6,3.1,2.2,5.4,2.2c2.2,0,3.8-0.7,5.4-2.2C344.9,48.5,345.6,46.4,345.6,44.2z"/>
		<path class="st3" d="M373.6,31.9h5.6V57h-5.6l-11.9-15.7V57h-5.6V31.9h5.2L373.6,48V31.9z"/>
		<path class="st3" d="M403.2,57l-2.2-5.4h-10.5l-2.2,5.4h-6.1l10.8-25.1h5.4L409.1,57H403.2z M395.8,39.3l-3.1,7.2h6.3L395.8,39.3z
			"/>
		<path class="st3" d="M412.2,57V31.9h5.6V52h10.8V57H412.2z"/>
		<path class="st3" d="M453.5,52c2.7,0,4.9-1.1,6.7-3.4l3.6,3.6c-2.9,3.1-6.3,4.7-10.1,4.7c-3.8,0-7-1.1-9.6-3.6
			c-2.5-2.5-3.8-5.6-3.8-9.2c0-3.8,1.3-6.7,3.8-9.4c2.5-2.5,5.6-3.8,9.4-3.8c4,0,7.6,1.6,10.3,4.7l-3.6,4c-1.8-2.2-4-3.4-6.5-3.4
			c-2,0-3.8,0.7-5.4,2c-1.6,1.3-2.2,3.1-2.2,5.6c0,2.5,0.7,4.3,2,5.6C449.9,51.4,451.5,52,453.5,52z"/>
		<path class="st3" d="M486.1,57l-2.2-5.4h-10.5L471,57H465l10.8-25.1h5.4L491.9,57H486.1z M478.4,39.3l-3.1,7.2h6.3L478.4,39.3z"/>
		<path class="st3" d="M512.5,31.9h5.6V57h-5.6l-11.9-15.7V57H495V31.9h5.2L512.5,48V31.9z"/>
		<path class="st3" d="M535.9,52c2.7,0,4.9-1.1,6.7-3.4l3.6,3.6c-2.9,3.1-6.3,4.7-10.1,4.7s-7-1.1-9.6-3.6c-2.5-2.5-3.8-5.6-3.8-9.2
			c0-3.8,1.3-6.7,3.8-9.4c2.5-2.5,5.6-3.8,9.4-3.8c4,0,7.6,1.6,10.3,4.7l-3.6,4c-1.8-2.2-4-3.4-6.5-3.4c-2,0-3.8,0.7-5.4,2
			c-1.6,1.3-2.2,3.1-2.2,5.6c0,2.5,0.7,4.3,2,5.6C532.1,51.4,533.9,52,535.9,52z"/>
		<path class="st3" d="M568.6,31.9v4.9h-12.6v5.2h11.2v4.7h-11.2V52h12.8V57h-18.4V31.9H568.6z"/>
		<path class="st3" d="M594.4,40.2c0,4-1.6,6.5-4.7,7.9l6.3,9h-7l-5.6-8.1h-3.8V57H574V31.9h9.4c3.8,0,6.7,0.7,8.3,2
			C593.3,35.2,594.4,37.2,594.4,40.2z M587.7,43.1c0.7-0.7,1.1-1.6,1.1-2.9c0-1.3-0.4-2.2-1.1-2.7c-0.7-0.4-2-0.7-3.8-0.7h-4.3v7.4
			h4C585.7,44.2,586.8,43.7,587.7,43.1z"/>
		<path class="st3" d="M609.7,31.9h5.6V57h-5.6V31.9z"/>
		<path class="st3" d="M638.9,31.9h5.6V57h-5.6L627,41.3V57h-5.6V31.9h5.2L638.9,48V31.9z"/>
		<path class="st3" d="M656.6,36.8c-0.4,0.4-0.9,1.1-0.9,1.8c0,0.7,0.2,1.3,0.9,1.8c0.7,0.4,2.2,0.9,4.5,1.6
			c2.2,0.7,4.3,1.6,5.6,2.7c1.3,1.1,2,2.9,2,5.2c0,2.2-0.9,4-2.5,5.4c-1.6,1.3-3.8,2-6.7,2c-4,0-7.6-1.6-10.8-4.5l3.4-4
			c2.7,2.5,5.2,3.6,7.4,3.6c1.1,0,1.8-0.2,2.5-0.7c0.7-0.4,0.9-1.1,0.9-1.8c0-0.7-0.2-1.3-0.9-1.8s-1.8-0.9-3.6-1.3
			c-2.9-0.7-5.2-1.6-6.5-2.7s-2-2.9-2-5.2s0.9-4.3,2.5-5.6c1.8-1.3,3.8-2,6.5-2c1.6,0,3.4,0.2,4.9,0.9c1.6,0.7,3.1,1.3,4.5,2.5
			l-2.9,4c-2.2-1.6-4.5-2.5-6.7-2.5C658,36.1,657.1,36.3,656.6,36.8z"/>
		<path class="st3" d="M684,36.8V57h-5.6V36.8h-7.2v-4.9h19.7v4.9H684z"/>
		<path class="st3" d="M695.2,31.9h5.6V57h-5.6V31.9z"/>
		<path class="st3" d="M717.7,36.8V57H712V36.8h-7.2v-4.9h19.7v4.9H717.7z"/>
		<path class="st3" d="M735.4,50.5c0.9,1.1,2.2,1.8,3.8,1.8c1.6,0,2.9-0.7,3.8-1.8c0.9-1.1,1.3-2.7,1.3-4.7V31.9h5.6V46
			c0,3.6-0.9,6.5-2.9,8.3c-2,2-4.5,2.9-7.6,2.9c-3.1,0-5.6-0.9-7.6-2.9c-2-2-3.1-4.7-3.1-8.3V31.9h5.6v13.9
			C734,47.8,734.5,49.4,735.4,50.5z"/>
		<path class="st3" d="M766.4,36.8V57h-5.6V36.8h-7.2v-4.9h19.7v4.9H766.4z"/>
		<path class="st3" d="M795.7,31.9v4.9h-12.6v5.2h11.2v4.7h-11.2V52H796V57h-18.4V31.9H795.7z"/>
	</g>
</g>
<g>
	<path class="st4" d="M258.5,84.1h7.4v33h-7.4v-13h-13v13h-7.4v-33h7.4v13.7h13V84.1z"/>
	<path class="st4" d="M295.3,113.3c-2.9,2.7-6.3,4-10.1,4s-7-1.1-9.6-3.6c-2.5-2.5-3.8-5.6-3.8-9.6c0-4,1.3-7.2,3.8-9.4
		c2.5-2.2,5.6-3.6,9-3.6c3.6,0,6.5,1.1,9,3.1c2.5,2,3.6,4.9,3.6,8.8v3.8h-18.2c0.2,1.3,0.9,2.5,2.2,3.4c1.1,0.9,2.7,1.3,4,1.3
		c2.5,0,4.5-0.9,6.1-2.5L295.3,113.3z M288.6,98.3c-0.9-0.9-2.2-1.1-3.6-1.1s-2.7,0.4-3.8,1.3c-1.1,0.9-1.8,2-2,3.4h11.2
		C290.1,100.3,289.5,99.2,288.6,98.3z"/>
	<path class="st4" d="M324,116.9h-6.7v-3.1c-1.8,2.2-4,3.4-6.7,3.4s-4.9-0.7-6.7-2.2c-1.8-1.6-2.7-3.6-2.7-6.3
		c0-2.7,0.9-4.5,2.9-5.8c1.8-1.3,4.5-2,7.6-2h5.4v-0.2c0-2.7-1.3-4-4.3-4c-1.1,0-2.5,0.2-3.8,0.7c-1.3,0.4-2.5,1.1-3.4,1.8l-3.1-4.5
		c3.4-2.5,7.2-3.6,11.4-3.6c3.1,0,5.6,0.7,7.6,2.2c2,1.6,2.9,4,2.9,7.4v16.4H324z M316.8,107.3v-1.1h-4.5c-2.9,0-4.3,0.9-4.3,2.7
		c0,0.9,0.4,1.6,1.1,2c0.7,0.4,1.6,0.7,2.9,0.7c1.3,0,2.5-0.4,3.4-1.1C316.4,109.7,316.8,108.6,316.8,107.3z"/>
	<path class="st4" d="M337.5,116.9h-7V82.1h7V116.9z"/>
	<path class="st4" d="M352.8,96.7v11.4c0,0.9,0.2,1.8,0.7,2.2c0.4,0.4,1.1,0.9,1.8,0.9c1.3,0,2.5-0.7,3.4-1.8l2.7,4.9
		c-2.2,2-4.5,2.9-7,2.9s-4.5-0.9-6.3-2.5c-1.8-1.6-2.5-3.8-2.5-6.5V96.7h-2.9v-5.2h2.9v-7.6h7.2v7.6h6.1v5.2
		C358.8,96.7,352.8,96.7,352.8,96.7z"/>
	<path class="st4" d="M372.1,103.4v13.7h-7v-35h7v12.3c2.2-2.2,4.5-3.1,7.2-3.1s4.9,0.9,6.7,2.9c1.8,1.8,2.7,4.5,2.7,7.6v15.5h-7
		v-13.9c0-3.8-1.3-5.8-4.3-5.8c-1.3,0-2.7,0.4-3.6,1.6C372.5,99.8,372.1,101.4,372.1,103.4z"/>
	<path class="st4" d="M408.2,84.1h7.4v33h-7.4V84.1z"/>
	<path class="st4" d="M429.7,102.8v14.1h-7V91.5h7v2.9c2.2-2.2,4.5-3.1,7.2-3.1s4.9,0.9,6.7,2.9c1.8,1.8,2.7,4.5,2.7,7.6v15.5h-7
		V103c0-3.8-1.3-5.8-4.3-5.8c-1.3,0-2.7,0.4-3.6,1.6C430.4,99.4,429.7,101,429.7,102.8z"/>
	<path class="st4" d="M460.9,90.2V92h6.1v4.9h-6.1v20h-7v-20H451v-5.2h2.9v-1.6c0-2.7,0.9-4.9,2.5-6.5s3.8-2.5,6.3-2.5
		s4.7,0.9,6.7,2.9l-2.5,4.7c-1.1-1.1-2.2-1.8-3.4-1.8c-0.7,0-1.3,0.2-1.8,0.7C461.4,88.4,460.9,89.3,460.9,90.2z"/>
	<path class="st4" d="M496.4,104.3c0,3.6-1.3,6.7-3.8,9.2s-5.8,3.8-9.6,3.8s-7-1.3-9.6-3.8s-3.8-5.6-3.8-9.2s1.3-6.7,3.8-9.2
		c2.5-2.5,5.8-3.8,9.6-3.8s7,1.3,9.6,3.8S496.4,100.7,496.4,104.3z M476.6,104.3c0,2,0.7,3.8,1.8,5.2c1.1,1.3,2.7,2,4.5,2
		s3.4-0.7,4.5-2c1.1-1.3,1.8-2.9,1.8-5.2c0-2-0.7-3.8-1.8-5.2c-1.1-1.3-2.7-2-4.5-2s-3.4,0.7-4.5,2
		C477.1,100.5,476.6,102.3,476.6,104.3z"/>
	<path class="st4" d="M514.8,97.8c-2,0-3.6,0.7-4.7,2.2c-1.1,1.6-1.6,3.4-1.6,5.8v11h-7V91.5h7v3.4c0.9-1.1,2-2,3.4-2.7
		s2.7-1.1,4.3-1.1v6.7C516.1,97.8,514.8,97.8,514.8,97.8z"/>
	<path class="st4" d="M544.2,103.4v13.7H537v-13.9c0-2-0.2-3.6-0.9-4.5c-0.7-0.9-1.6-1.3-2.9-1.3c-1.3,0-2.5,0.4-3.6,1.6
		s-1.6,2.5-1.6,4.5v13.7h-7V91.5h7v2.9c2-2.2,4.3-3.4,6.7-3.4c1.6,0,3.1,0.4,4.3,1.3s2.2,2,2.9,3.4c0.9-1.6,2.2-2.7,4-3.6
		c1.6-0.9,3.4-1.3,4.9-1.3c2.9,0,5.4,0.9,7.2,2.7s2.7,4.3,2.7,7.6v15.5h-7.2v-13.9c0-3.8-1.3-5.8-4.3-5.8c-1.3,0-2.7,0.4-3.6,1.6
		C544.6,99.8,544.2,101.4,544.2,103.4z"/>
	<path class="st4" d="M588.8,116.9h-6.7v-3.1c-1.8,2.2-4,3.4-6.7,3.4c-2.7,0-4.9-0.7-6.7-2.2c-1.8-1.6-2.7-3.6-2.7-6.3
		c0-2.7,0.9-4.5,2.9-5.8c1.8-1.3,4.5-2,7.6-2h5.4v-0.2c0-2.7-1.3-4-4.3-4c-1.1,0-2.5,0.2-3.8,0.7c-1.3,0.4-2.5,1.1-3.4,1.8l-3.1-4.5
		c3.4-2.5,7.2-3.6,11.4-3.6c3.1,0,5.6,0.7,7.6,2.2c2,1.6,2.9,4,2.9,7.4v16.4H588.8z M581.7,107.3v-1.1h-4.5c-2.9,0-4.3,0.9-4.3,2.7
		c0,0.9,0.4,1.6,1.1,2c0.7,0.4,1.6,0.7,2.9,0.7s2.5-0.4,3.4-1.1S581.7,108.6,581.7,107.3z"/>
	<path class="st4" d="M603.4,96.7v11.4c0,0.9,0.2,1.8,0.7,2.2c0.4,0.4,1.1,0.9,1.8,0.9c1.3,0,2.5-0.7,3.4-1.8l2.7,4.9
		c-2.2,2-4.5,2.9-7,2.9c-2.5,0-4.5-0.9-6.3-2.5c-1.8-1.6-2.5-3.8-2.5-6.5V96.7h-2.9v-5.2h2.9v-7.6h7.2v7.6h6.1v5.2H603.4z"/>
	<path class="st4" d="M616.2,88.4c-0.9-0.9-1.1-1.8-1.1-2.9c0-1.1,0.4-2.2,1.1-2.9c0.9-0.9,1.8-1.1,2.9-1.1c1.1,0,2.2,0.4,2.9,1.1
		c0.9,0.9,1.1,1.8,1.1,2.9c0,1.1-0.4,2.2-1.1,2.9c-0.9,0.9-1.8,1.1-2.9,1.1C618,89.5,617.1,89.3,616.2,88.4z M622.7,116.9h-7.2V91.5
		h7v25.4C622.5,116.9,622.7,116.9,622.7,116.9z"/>
	<path class="st4" d="M654.8,104.3c0,3.6-1.3,6.7-3.8,9.2c-2.5,2.5-5.8,3.8-9.6,3.8c-3.8,0-7-1.3-9.6-3.8c-2.7-2.5-3.8-5.6-3.8-9.2
		s1.3-6.7,3.8-9.2c2.5-2.5,5.8-3.8,9.6-3.8c3.8,0,7,1.3,9.6,3.8C653.7,97.6,654.8,100.7,654.8,104.3z M635.1,104.3
		c0,2,0.7,3.8,1.8,5.2c1.1,1.3,2.7,2,4.5,2c1.8,0,3.4-0.7,4.5-2c1.1-1.3,1.8-2.9,1.8-5.2c0-2-0.7-3.8-1.8-5.2c-1.1-1.3-2.7-2-4.5-2
		c-1.8,0-3.4,0.7-4.5,2C635.7,100.5,635.1,102.3,635.1,104.3z"/>
	<path class="st4" d="M667.2,102.8v14.1h-7V91.5h7v2.9c2.2-2.2,4.5-3.1,7.2-3.1c2.7,0,4.9,0.9,6.7,2.9c1.8,1.8,2.7,4.5,2.7,7.6v15.5
		h-7V103c0-3.8-1.3-5.8-4.3-5.8c-1.3,0-2.7,0.4-3.6,1.6C667.6,99.4,667.2,101,667.2,102.8z"/>
	<path class="st4" d="M726.4,84.1h7.4v33h-7.4l-15.7-20.6v20.6h-7.4v-33h7l16.2,21.1L726.4,84.1L726.4,84.1z"/>
	<path class="st4" d="M762.5,116.9h-6.7v-3.1c-1.8,2.2-4,3.4-6.7,3.4c-2.7,0-4.9-0.7-6.7-2.2c-1.8-1.6-2.7-3.6-2.7-6.3
		c0-2.7,0.9-4.5,2.9-5.8c1.8-1.3,4.5-2,7.6-2h5.4v-0.2c0-2.7-1.3-4-4.3-4c-1.1,0-2.5,0.2-3.8,0.7c-1.3,0.4-2.5,1.1-3.4,1.8l-3.1-4.5
		c3.4-2.5,7.2-3.6,11.4-3.6c3.1,0,5.6,0.7,7.6,2.2c2,1.6,2.9,4,2.9,7.4v16.4H762.5z M755.6,107.3v-1.1h-4.5c-2.9,0-4.3,0.9-4.3,2.7
		c0,0.9,0.4,1.6,1.1,2c0.7,0.4,1.6,0.7,2.9,0.7s2.5-0.4,3.4-1.1C754.9,109.7,755.6,108.6,755.6,107.3z"/>
	<path class="st4" d="M777.1,96.7v11.4c0,0.9,0.2,1.8,0.7,2.2c0.4,0.4,1.1,0.9,1.8,0.9c1.3,0,2.5-0.7,3.4-1.8l2.7,4.9
		c-2.2,2-4.5,2.9-7,2.9c-2.5,0-4.5-0.9-6.3-2.5c-1.8-1.6-2.5-3.8-2.5-6.5V96.7H767v-5.2h2.9v-7.6h7.2v7.6h6.1v5.2H777.1z"/>
	<path class="st4" d="M790.1,88.4c-0.9-0.9-1.1-1.8-1.1-2.9c0-1.1,0.4-2.2,1.1-2.9c0.9-0.9,1.8-1.1,2.9-1.1s2.2,0.4,2.9,1.1
		c0.9,0.9,1.1,1.8,1.1,2.9c0,1.1-0.4,2.2-1.1,2.9c-0.9,0.9-1.8,1.1-2.9,1.1S790.8,89.3,790.1,88.4z M796.6,116.9h-7V91.5h7V116.9z"
		/>
	<path class="st4" d="M828.5,104.3c0,3.6-1.3,6.7-3.8,9.2c-2.5,2.5-5.8,3.8-9.6,3.8c-3.8,0-7-1.3-9.6-3.8c-2.7-2.5-3.8-5.6-3.8-9.2
		s1.3-6.7,3.8-9.2c2.5-2.5,5.8-3.8,9.6-3.8c3.8,0,7,1.3,9.6,3.8C827.4,97.6,828.5,100.7,828.5,104.3z M809,104.3
		c0,2,0.7,3.8,1.8,5.2c1.1,1.3,2.7,2,4.5,2c1.8,0,3.4-0.7,4.5-2c1.1-1.3,1.8-2.9,1.8-5.2c0-2-0.7-3.8-1.8-5.2c-1.1-1.3-2.7-2-4.5-2
		c-1.8,0-3.4,0.7-4.5,2C809.4,100.5,809,102.3,809,104.3z"/>
	<path class="st4" d="M840.9,102.8v14.1h-7V91.5h7v2.9c2.2-2.2,4.5-3.1,7.2-3.1c2.7,0,4.9,0.9,6.7,2.9c1.8,1.8,2.7,4.5,2.7,7.6v15.5
		h-7V103c0-3.8-1.3-5.8-4.3-5.8c-1.3,0-2.7,0.4-3.6,1.6C841.5,99.4,840.9,101,840.9,102.8z"/>
	<path class="st4" d="M885.5,116.9h-6.7v-3.1c-1.8,2.2-4,3.4-6.7,3.4c-2.7,0-4.9-0.7-6.7-2.2s-2.7-3.6-2.7-6.3
		c0-2.7,0.9-4.5,2.9-5.8c1.8-1.3,4.5-2,7.6-2h5.4v-0.2c0-2.7-1.3-4-4.3-4c-1.1,0-2.5,0.2-3.8,0.7c-1.3,0.4-2.5,1.1-3.4,1.8l-3.1-4.5
		c3.4-2.5,7.2-3.6,11.4-3.6c3.1,0,5.6,0.7,7.6,2.2c2,1.6,2.9,4,2.9,7.4v16.4H885.5z M878.3,107.3v-1.1h-4.5c-2.9,0-4.3,0.9-4.3,2.7
		c0,0.9,0.4,1.6,1.1,2c0.7,0.4,1.6,0.7,2.9,0.7s2.5-0.4,3.4-1.1S878.3,108.6,878.3,107.3z"/>
	<path class="st4" d="M899,116.9h-7V82.1h7V116.9z"/>
	<path class="st4" d="M932.9,90.4v26.5h-7.4V90.4H916v-6.3h26v6.3H932.9z"/>
	<path class="st4" d="M960.2,97.8c-2,0-3.6,0.7-4.7,2.2c-1.1,1.6-1.6,3.4-1.6,5.8v11h-7V91.5h7v3.4c0.9-1.1,2-2,3.4-2.7
		s2.7-1.1,4.3-1.1v6.7C961.6,97.8,960.2,97.8,960.2,97.8z"/>
	<path class="st4" d="M988.1,113.3c-2.9,2.7-6.3,4-10.1,4s-7-1.1-9.6-3.6c-2.5-2.5-3.8-5.6-3.8-9.6c0-4,1.3-7.2,3.8-9.4
		c2.5-2.2,5.6-3.6,9-3.6c3.6,0,6.5,1.1,9,3.1c2.5,2,3.6,4.9,3.6,8.8v3.8h-18.4c0.2,1.3,0.9,2.5,2.2,3.4c1.1,0.9,2.7,1.3,4,1.3
		c2.5,0,4.5-0.9,6.1-2.5L988.1,113.3z M981.3,98.3c-0.9-0.9-2.2-1.1-3.6-1.1s-2.7,0.4-3.8,1.3c-1.1,0.9-1.8,2-2,3.4h11.2
		C982.9,100.3,982.2,99.2,981.3,98.3z"/>
	<path class="st4" d="M1002.4,102.8v14.1h-7V91.5h7v2.9c2.2-2.2,4.5-3.1,7.2-3.1c2.7,0,4.9,0.9,6.7,2.9c1.8,1.8,2.7,4.5,2.7,7.6
		v15.5h-7V103c0-3.8-1.3-5.8-4.3-5.8c-1.3,0-2.7,0.4-3.6,1.6C1002.9,99.4,1002.4,101,1002.4,102.8z"/>
	<path class="st4" d="M1035.7,117.4c-2.9,0-5.6-1.3-8.1-3.8c-2.2-2.5-3.6-5.6-3.6-9.4s1.1-7,3.4-9.2c2.2-2.5,4.9-3.6,8.1-3.6
		s5.6,1.1,7.6,3.1V82.1h7.2v35h-7.2v-3.4C1041,116.2,1038.6,117.4,1035.7,117.4z M1031.2,104.3c0,2,0.7,3.8,1.8,4.9
		c1.1,1.3,2.7,2,4.3,2s2.9-0.7,4.3-2c1.1-1.3,1.8-2.9,1.8-4.9s-0.7-3.8-1.8-5.2c-1.1-1.3-2.5-2-4.3-2c-1.6,0-3.1,0.7-4.3,2
		C1031.6,100.5,1031.2,102.3,1031.2,104.3z"/>
	<path class="st4" d="M1075.8,109c0,2.5-0.9,4.5-2.7,6.1s-4.3,2.2-7,2.2c-1.8,0-3.8-0.4-5.8-1.1c-2-0.7-3.8-1.6-5.6-2.9l3.1-4.5
		c2.7,2,5.4,3.1,8.5,3.1c0.9,0,1.6-0.2,2.2-0.4c0.4-0.4,0.9-0.9,0.9-1.3c0-0.7-0.4-1.1-1.1-1.6c-0.7-0.4-1.8-0.9-3.1-1.3
		c-1.3-0.4-2.5-0.9-3.1-1.1c-0.7-0.2-1.6-0.7-2.5-1.3c-2-1.1-2.9-2.9-2.9-5.4c0-2.5,0.9-4.3,2.9-5.8c1.8-1.6,4.3-2.2,7.4-2.2
		c3.1,0,6.1,0.9,9,2.9l-2.7,4.7c-2.2-1.6-4.5-2.2-6.5-2.2c-2.2,0-3.4,0.7-3.4,1.8c0,0.7,0.4,1.1,1.1,1.6c0.7,0.4,1.8,0.9,3.4,1.3
		c1.6,0.4,2.7,0.9,3.4,1.1c0.7,0.2,1.6,0.7,2.5,1.3C1074.9,104.8,1075.8,106.6,1075.8,109z"/>
	<path class="st4" d="M1102.1,90.6c-0.7,0.7-1.1,1.3-1.1,2.2s0.4,1.8,1.3,2.2c0.9,0.7,2.9,1.1,6.1,2c3.1,0.7,5.6,2,7.2,3.4
		s2.7,3.8,2.7,6.7s-1.1,5.4-3.4,7.2c-2.2,1.8-5.2,2.7-8.8,2.7c-5.2,0-9.9-2-14.1-5.8l4.5-5.4c3.6,3.1,6.7,4.7,9.9,4.7
		c1.3,0,2.5-0.2,3.1-0.9s1.1-1.3,1.1-2.5c0-0.9-0.4-1.8-1.1-2.2c-0.9-0.7-2.5-1.1-4.9-1.8c-3.8-0.9-6.7-2-8.3-3.6
		c-1.8-1.6-2.7-3.8-2.7-7c0-3.1,1.1-5.6,3.4-7.2s4.9-2.5,8.3-2.5c2.2,0,4.5,0.4,6.5,1.1c2.2,0.7,4,1.8,5.8,3.1l-3.8,5.4
		c-2.9-2.2-5.8-3.1-8.8-3.1C1103.9,89.7,1103,90,1102.1,90.6z"/>
	<path class="st4" d="M1139.8,105.2V91.5h7.2v25.4h-7.2v-3.4c-1.8,2.5-4,3.8-6.7,3.8s-5.2-0.9-7-2.7c-1.8-1.8-2.9-4.3-2.9-7.9V91.5
		h7.2v13.9c0,3.8,1.3,5.8,4.3,5.8c1.3,0,2.7-0.4,3.6-1.6C1139.1,108.6,1139.8,107.3,1139.8,105.2z"/>
	<path class="st4" d="M1166.9,97.8c-2,0-3.6,0.7-4.7,2.2c-1.1,1.6-1.6,3.4-1.6,5.8v11h-7V91.5h7v3.4c0.9-1.1,2-2,3.4-2.7
		s2.7-1.1,4.3-1.1v6.7C1168.3,97.8,1166.9,97.8,1166.9,97.8z"/>
	<path class="st4" d="M1179.9,116.9l-10.1-25.4h7.4l6.3,15.9l6.3-15.9h7.4l-10.1,25.4H1179.9z"/>
	<path class="st4" d="M1222.6,113.3c-2.9,2.7-6.3,4-10.1,4c-3.8,0-7-1.1-9.6-3.6c-2.5-2.5-3.8-5.6-3.8-9.6c0-4,1.3-7.2,3.8-9.4
		c2.5-2.2,5.6-3.6,9-3.6c3.6,0,6.5,1.1,9,3.1c2.5,2,3.6,4.9,3.6,8.8v3.8H1206c0.2,1.3,0.9,2.5,2.2,3.4c1.1,0.9,2.7,1.3,4,1.3
		c2.5,0,4.5-0.9,6.1-2.5L1222.6,113.3z M1215.9,98.3c-0.9-0.9-2.2-1.1-3.6-1.1s-2.7,0.4-3.8,1.3c-1.1,0.9-1.8,2-2,3.4h11.2
		C1217.4,100.3,1216.8,99.2,1215.9,98.3z"/>
	<path class="st4" d="M1233.8,127c-2.5,0-4.7-0.9-7-2.9l3.1-5.2c1.1,1.1,2.5,1.8,3.6,1.8c0.7,0,1.1-0.2,1.8-0.9s0.7-1.3,0.7-2
		c0-0.7-3.4-9.4-9.9-25.8h7.6l6.3,15.7l6.3-15.7h7.6l-12.1,29.6c-0.7,1.8-1.8,3.1-3.1,4C1237.2,126.6,1235.6,127,1233.8,127z"/>
</g>
</svg>
