<?xml version="1.0" encoding="utf-8"?>
<!-- Generator: Adobe Illustrator 23.0.6, SVG Export Plug-In . SVG Version: 6.00 Build 0)  -->
<svg version="1.1" id="Layer_1" xmlns="http://www.w3.org/2000/svg" xmlns:xlink="http://www.w3.org/1999/xlink" x="0px" y="0px"
	 viewBox="0 0 195.2 126.2" style="enable-background:new 0 0 195.2 126.2;" xml:space="preserve">
<style type="text/css">
	.st0{fill:#606061;}
	.st1{fill:#BA1F40;}
	.st2{fill:#FFFFFF;}
</style>
<g>
	<g>
		<path class="st0" d="M168.3,63.7L134.6,3.1H13c-7.2,0-13,5.8-13,13v95.2c0,7.2,5.8,13,13,13h121.6L168.3,63.7z"/>
		<path class="st1" d="M164.9,9.4c-2.5-3.8-6.7-6.3-11.2-6.3h-10.1l34.1,60.6l-34.1,60.6h10.1c4.7,0,9-2.5,11.2-6.3l30.3-54.3
			L164.9,9.4z"/>
	</g>
	<g>
		<rect x="71.8" y="36.8" class="st2" width="9" height="53.9"/>
		<polygon class="st2" points="53.9,36.8 53.9,76.3 29.2,36.8 20.2,36.8 20.2,90.6 29.2,90.6 29.2,51.1 53.9,90.6 62.8,90.6 
			62.8,36.8 		"/>
		<polygon class="st2" points="123.4,36.8 123.4,59.2 98.7,59.2 98.7,36.8 89.8,36.8 89.8,90.6 98.7,90.6 98.7,68.2 123.4,68.2 
			123.4,90.6 132.4,90.6 132.4,36.8 		"/>
	</g>
</g>
</svg>
